<?xml version="1.0" encoding="utf-8"?>
<!-- Generator: Adobe Illustrator 19.0.0, SVG Export Plug-In . SVG Version: 6.00 Build 0)  -->
<svg version="1.1" xmlns="http://www.w3.org/2000/svg" xmlns:xlink="http://www.w3.org/1999/xlink" x="0px" y="0px"
	 viewBox="0 0 148.2 148.2" style="enable-background:new 0 0 148.2 148.2;" xml:space="preserve">
<style type="text/css">
	.st0{fill:#FFFFFF;stroke:#000000;stroke-miterlimit:10;}
	.st1{display:none;}
</style>
<g id="Layer_2">
	<path id="XMLID_3_" class="st0" d="M93.7,87L136.4,49L93.6,10.9v19.2c0,0-77.7-13.2-84.8,45.5c0,0-5.6,33.8,32.7,56.2
		c0.5,0.3,1.2,0.5,1.8,0.6c2.9,0.6,13.8,2.1,30.8,2.1c22.8,0,39,0,39,0l0.1-38H63.1c0,0-16.6,2.9-16.6-15s22.3-12.8,32-13.1
		c9.8-0.3,15.4,0,15.4,0L93.7,87z"/>
</g>
<g id="Layer_1" class="st1">
	
		<image style="display:inline;overflow:visible;" width="256" height="256" id="XMLID_1_" xlink:href="redo red.png"  transform="matrix(0.5789 0 0 0.5789 0 0)">
	</image>
</g>
</svg>
