<?xml version="1.0" encoding="utf-8"?>
<!-- Generator: Adobe Illustrator 19.0.0, SVG Export Plug-In . SVG Version: 6.00 Build 0)  -->
<svg version="1.1" id="Layer_1" xmlns="http://www.w3.org/2000/svg" xmlns:xlink="http://www.w3.org/1999/xlink" x="0px" y="0px"
	 viewBox="0 0 73.6 81.8" style="enable-background:new 0 0 73.6 81.8;" xml:space="preserve">
<style type="text/css">
	.st0{fill:#1898D1;stroke:#000000;stroke-width:1.3512;stroke-miterlimit:10;}
	.st1{fill:#FCFCFC;stroke:#000000;stroke-width:1.2602;stroke-miterlimit:10;}
</style>
<path id="XMLID_2_" class="st0" d="M70.8,79.2l-6.3-7.1c-0.5-0.6-1.3-0.5-1.7,0l-7,8.5c-0.5,0.6-1.2,0.6-1.7,0.1l-7.9-8.6
	c-0.5-0.6-1.3-0.5-1.7,0.1l-6.8,8.4c-0.5,0.6-1.3,0.6-1.8,0l-7.3-8.5c-0.5-0.6-1.2-0.6-1.7,0l-7.3,8.5c-0.5,0.6-1.2,0.6-1.7,0
	l-7.3-8.5c-0.5-0.6-1.2-0.6-1.7,0l-6.1,7.1c-0.8,1-2.2,0.2-2.2-1.2V4.1c0-1.5,1.4-2.2,2.2-1.2l5.5,7.2c0.5,0.7,1.3,0.7,1.8,0l7-9
	c0.5-0.6,1.3-0.6,1.8,0l7.2,9.2c0.5,0.6,1.3,0.6,1.8,0l7-9.1c0.5-0.7,1.4-0.7,1.9,0l6.7,9.4c0.5,0.7,1.3,0.7,1.9,0.1L53,1.2
	c0.5-0.6,1.3-0.6,1.8,0l7.2,9.7c0.5,0.7,1.3,0.7,1.9,0l6.1-8c2.2-2.2,3-0.4,3,1.1l0,73.9C73,79.3,71.6,80.1,70.8,79.2z"/>
<rect id="XMLID_4_" x="9.3" y="20.8" class="st1" width="55.2" height="6.9"/>
<rect id="XMLID_7_" x="9.3" y="37.8" class="st1" width="55.2" height="6.9"/>
<rect id="XMLID_8_" x="9.2" y="55" class="st1" width="55.2" height="6.9"/>
</svg>
