<?xml version="1.0" encoding="utf-8"?>
<!-- Generator: Adobe Illustrator 19.0.0, SVG Export Plug-In . SVG Version: 6.00 Build 0)  -->
<svg version="1.1" id="Layer_1" xmlns="http://www.w3.org/2000/svg" xmlns:xlink="http://www.w3.org/1999/xlink" x="0px" y="0px"
	 viewBox="0 0 169.9 197.1" style="enable-background:new 0 0 169.9 197.1;" xml:space="preserve">
<style type="text/css">
	.st0{fill:#FFFFFF;stroke:#000000;stroke-miterlimit:10;}
</style>
<path class="st0" d="M166,40.6L146,184.1c-1,7.2-7.1,12.5-14.4,12.5H86H38.1c-6.6,0-12.2-4.9-13.1-11.4L4.7,40.6H86H166z M92.5,59.6
	c0-3.9-3.1-7-7-7l0,0c-3.9,0-7,3.1-7,7v120c0,3.9,3.1,7,7,7l0,0c3.9,0,7-3.1,7-7V59.6z M114.3,186.7L114.3,186.7
	c4,0.4,7.5-2.5,8-6.4l12.8-119c0.4-4-2.5-7.5-6.4-8v0c-4-0.4-7.5,2.5-8,6.4l-12.8,119C107.4,182.7,110.3,186.3,114.3,186.7z
	 M59.3,186.5L59.3,186.5c3.9-0.5,6.7-4.2,6.2-8.1L50,59.7c-0.5-3.9-4.2-6.7-8.1-6.2l0,0c-3.9,0.5-6.7,4.2-6.2,8.1l15.5,118.7
	C51.7,184.2,55.3,187.1,59.3,186.5z"/>
<path class="st0" d="M169.3,25.3l-1.2,4.4c-0.6,2.3-2.7,3.9-5.1,3.9H84.5v0L7,33.3c-2.4,0-4.5-1.6-5.1-3.9L0.7,25
	c-0.9-3.4,1.6-6.7,5.1-6.7l44.7,0.1c3,0,5.4-2.4,5.3-5.4l-0.1-7.1c-0.1-3,2.3-5.4,5.3-5.4l24,0.1h24c3,0,5.4,2.5,5.3,5.4l-0.2,7.1
	c-0.1,3,2.3,5.4,5.3,5.4h44.7C167.6,18.6,170.2,21.9,169.3,25.3z M108.5,10.1c0-3.6-2.9-6.5-6.5-6.5H71c-3.6,0-6.5,2.9-6.5,6.5l0,0
	c0,3.6,2.9,6.5,6.5,6.5h31C105.6,16.6,108.5,13.7,108.5,10.1L108.5,10.1z"/>
</svg>
